/* XPM */
static char *MainIcon16_XPM[] = {
/* columns rows colors chars-per-pixel */
"16 16 220 2",
"   c #2B0D00",
".  c #2F142B",
"X  c #3A353C",
"o  c #3A582E",
"O  c #5F365B",
"+  c #474553",
"@  c #705C5B",
"#  c #4C556F",
"$  c #505563",
"%  c #5D5F6E",
"&  c #625E69",
"*  c #626477",
"=  c #676577",
"-  c #67697E",
";  c #677372",
":  c #8B5332",
">  c #59873F",
",  c #78A955",
"<  c #6C8C69",
"1  c #748F71",
"2  c #FE9900",
"3  c #FDA311",
"4  c #FCAA16",
"5  c #FDBD26",
"6  c #FCBD2F",
"7  c #FDC12A",
"8  c #FDCC32",
"9  c #FDCA37",
"0  c #FCC139",
"q  c #FDD337",
"w  c #D38A61",
"e  c #F4AC7A",
"r  c #91F059",
"t  c #B4FF7C",
"y  c #FBCC46",
"u  c #FBCD47",
"i  c #FCD946",
"p  c #FAD454",
"a  c #F8D952",
"s  c #F6DE5B",
"d  c #FADE58",
"f  c #F8E653",
"g  c #FBE155",
"h  c #FDE25B",
"j  c #FAE45C",
"k  c #F9E763",
"l  c #F4E271",
"z  c #F3EA76",
"x  c #345591",
"c  c #4D5E85",
"v  c #566587",
"b  c #4B6493",
"n  c #686A84",
"m  c #6C6984",
"M  c #6E7C89",
"N  c #707686",
"B  c #73778B",
"V  c #75778A",
"C  c #787B8C",
"Z  c #787C8E",
"A  c #737B91",
"S  c #7A7E94",
"D  c #717D99",
"F  c #947194",
"G  c #8077A0",
"H  c #887EAF",
"J  c #8A7DB2",
"K  c #7F879B",
"L  c #7D89A8",
"P  c #798AAC",
"I  c #7E8DB2",
"U  c #88889B",
"Y  c #89899C",
"T  c #95BD88",
"R  c #8481A4",
"E  c #838FA3",
"W  c #888AA0",
"Q  c #8B8DA2",
"!  c #8B8CA3",
"~  c #888CA4",
"^  c #8D90A7",
"/  c #9796A9",
"(  c #9083B7",
")  c #8C95B1",
"_  c #9596B3",
"`  c #9698B1",
"'  c #9F9FB7",
"]  c #9095B9",
"[  c #A180AC",
"{  c #A791B6",
"}  c #94A0B7",
"|  c #9FA2BD",
" . c #9BA8BE",
".. c #A6A3B7",
"X. c #A2A5BF",
"o. c #A8A6BC",
"O. c #BCFF8B",
"+. c #FFC28C",
"@. c #E8E58E",
"#. c #F3E288",
"$. c #E7E397",
"%. c #EDE890",
"&. c #EDEE96",
"*. c #E2E29F",
"=. c #E6E89A",
"-. c #ECE99E",
";. c #F4E793",
":. c #F2E599",
">. c #F2E89F",
",. c #F1EE9D",
"<. c #F2F796",
"1. c #FFF190",
"2. c #F2F09D",
"3. c #DFD9A9",
"4. c #DCD9AD",
"5. c #DCDDAF",
"6. c #CECDBD",
"7. c #CAD2B5",
"8. c #D6D6B6",
"9. c #D9D7B1",
"0. c #DFDFB3",
"q. c #FFC4A8",
"w. c #FFCDA8",
"e. c #FCC8AF",
"r. c #FFD9A3",
"t. c #E6C1BE",
"y. c #FAC6B4",
"u. c #FFCAB1",
"i. c #FFD8BF",
"p. c #CBFFAA",
"a. c #C7F7B4",
"s. c #CBFBB3",
"d. c #F2ECA0",
"f. c #FCF0A4",
"g. c #F6EDB8",
"h. c #F5EBBC",
"j. c #EFFFBE",
"k. c #F2F1B0",
"l. c #A19FC4",
"z. c #89A5DB",
"x. c #A4A6C1",
"c. c #A4A8C3",
"v. c #A5ACC5",
"b. c #AAB5CE",
"n. c #B4B2C6",
"m. c #ABB1D0",
"M. c #AEB8DD",
"N. c #B4BBD6",
"B. c #B9BBD2",
"V. c #B2BBDD",
"C. c #B6BFDE",
"Z. c #BABCD8",
"A. c #8FBCFF",
"S. c #9EB7F2",
"D. c #B7BAE4",
"F. c #BCBFE3",
"G. c #B4B4EB",
"H. c #A0BEFF",
"J. c #B2BDF0",
"K. c #C983C3",
"L. c #C1BFE7",
"P. c #EEADEC",
"I. c #E7BBE8",
"U. c #BEC4DF",
"Y. c #9EC2FF",
"T. c #AFC7FF",
"R. c #ABC9FF",
"E. c #BDC8F1",
"W. c #B2CAFF",
"Q. c #B5CBFF",
"!. c #D1CECA",
"~. c #C3C4D3",
"^. c #C5C0D8",
"/. c #C5CCDA",
"(. c #C9CEDB",
"). c #D1D4D2",
"_. c #D1D7D2",
"`. c #D5DBD5",
"'. c #F5CED3",
"]. c #FEDED9",
"[. c #C8FCC4",
"{. c #D6F9C6",
"}. c #D5FFC4",
"|. c #D7F7CB",
" X c #D2FAD4",
".X c #E8EED9",
"XX c #F7E7DA",
"oX c #FAEEDC",
"OX c #C6C2E5",
"+X c #C4C8EC",
"@X c #C6CEEC",
"#X c #CBCDEB",
"$X c #C6C5F2",
"%X c #C3C7F8",
"&X c #CDD3F7",
"*X c #CBDAFF",
"=X c #CFD8FF",
"-X c #DCD6FE",
";X c #D3D8F9",
":X c #D4D8FB",
">X c #D4D8FD",
",X c #D4DDFF",
"<X c #D9D8FF",
"1X c #E5D8ED",
"2X c #E1CBF8",
"3X c #F2C2FF",
"4X c #F4C4FC",
"5X c #F7C6FF",
"6X c #F5D3FF",
"7X c #FFD2FF",
"8X c #FFD4FF",
"9X c #FEDDFF",
"0X c #DDFFE4",
"qX c #D4E1F1",
"wX c #DDEDFF",
"eX c #E7FAE1",
"rX c #F0E1F4",
"tX c #FFE2FB",
"yX c #FFEBFF",
"uX c #F0F0FF",
/* pixels */
"% W A D I L W W Q Q K E M N Z V ",
"c.S X @ ].1X=X,X,X>X-XyX[ + $ ` ",
"m.B   w +.q.~.V.N.D.5X7XK.. { v.",
") & : w.e.i.^.U.C.~.].9XF O 5Xb.",
"P t.e y.'.1._.*.8.=.oX6XI.P.3X .",
"L rXu.r.XXg.z s j ;.h.f.tX7X2X` ",
"Q ,XOX!.&.>.i 8 u a f 5.$XOX@Xc.",
"W >XV.J.8.k y 4 3 7 a $.7.M.+Xx.",
"U :XG.6.@.s 9 3 2 6 g 4.U.B.+X| ",
"Q <XF./._.l q 0 5 y #.-.(.E.#X| ",
"R qXa.{.<.k.:.h p g d..X`.W.E.| ",
"H  XO.s.|.eX,.3.%.9.-.*XQ.Y.T.o.",
"J [.t p.}.j.`.%X0.&XwX=XR.A.H...",
"( 0Xr > , T ] = n U I z.b x S.n.",
"_ uX< o 1 ; $ * - U + v c # ;XB.",
"C L.S m l.R B ~ ^ v.S - Y / m.~ "
};
